<svg width="64" height="64" viewBox="0 0 64 64" fill="none" xmlns="http://www.w3.org/2000/svg">
<path d="M32 50C29.6898 50.002 27.4151 49.4315 25.3793 48.3394C23.3435 47.2473 21.6101 45.6678 20.334 43.742L23.666 41.528C24.5781 42.9034 25.8165 44.0317 27.2707 44.8123C28.7248 45.5928 30.3496 46.0013 32 46.0013C33.6504 46.0013 35.2752 45.5928 36.7293 44.8123C38.1835 44.0317 39.4219 42.9034 40.334 41.528L43.666 43.742C42.3899 45.6678 40.6565 47.2473 38.6207 48.3394C36.5849 49.4315 34.3102 50.002 32 50ZM40 28C39.2089 28 38.4355 28.2346 37.7777 28.6741C37.1199 29.1136 36.6072 29.7384 36.3045 30.4693C36.0017 31.2002 35.9225 32.0044 36.0769 32.7804C36.2312 33.5563 36.6122 34.269 37.1716 34.8284C37.731 35.3878 38.4437 35.7688 39.2196 35.9231C39.9956 36.0775 40.7998 35.9983 41.5307 35.6955C42.2616 35.3928 42.8864 34.8801 43.3259 34.2223C43.7654 33.5645 44 32.7911 44 32C44.0054 31.4732 43.9055 30.9507 43.7064 30.463C43.5073 29.9752 43.2129 29.5321 42.8403 29.1596C42.4678 28.7871 42.0248 28.4927 41.537 28.2936C41.0493 28.0945 40.5268 27.9946 40 28ZM24 28C23.2089 28 22.4355 28.2346 21.7777 28.6741C21.1199 29.1136 20.6072 29.7384 20.3045 30.4693C20.0017 31.2002 19.9225 32.0044 20.0769 32.7804C20.2312 33.5563 20.6122 34.269 21.1716 34.8284C21.731 35.3878 22.4437 35.7688 23.2196 35.9231C23.9956 36.0775 24.7998 35.9983 25.5307 35.6955C26.2616 35.3928 26.8864 34.8801 27.3259 34.2223C27.7654 33.5645 28 32.7911 28 32C28.0054 31.4732 27.9055 30.9507 27.7064 30.463C27.5073 29.9752 27.2129 29.5321 26.8403 29.1596C26.4678 28.7871 26.0248 28.4927 25.537 28.2936C25.0493 28.0945 24.5268 27.9946 24 28Z" fill="#4151E4"/>
<path d="M60 32V28H56V20C55.9974 17.8791 55.1536 15.8458 53.6539 14.3461C52.1542 12.8464 50.1209 12.0026 48 12H44V4H40V12H24V4H20V12H16C13.8791 12.0026 11.8458 12.8464 10.3461 14.3461C8.84635 15.8458 8.00265 17.8791 8 20V28H4V32H8V42H4V46H8V52C8.00265 54.1209 8.84635 56.1542 10.3461 57.6539C11.8458 59.1536 13.8791 59.9974 16 60H48C50.1209 59.9974 52.1542 59.1536 53.6539 57.6539C55.1536 56.1542 55.9974 54.1209 56 52V46H60V42H56V32H60ZM52 52C51.9989 53.0605 51.5772 54.0773 50.8273 54.8273C50.0773 55.5772 49.0605 55.9989 48 56H16C14.9395 55.9989 13.9227 55.5772 13.1727 54.8273C12.4228 54.0773 12.0011 53.0605 12 52V20C12.0011 18.9395 12.4228 17.9227 13.1727 17.1727C13.9227 16.4228 14.9395 16.0011 16 16H48C49.0605 16.0011 50.0773 16.4228 50.8273 17.1727C51.5772 17.9227 51.9989 18.9395 52 20V52Z" fill="#4151E4"/>
</svg>
