<svg width="64" height="64" viewBox="0 0 64 64" fill="none" xmlns="http://www.w3.org/2000/svg">
<path d="M32.0533 29.3867C38 29.3867 43.0418 28.4782 47.1787 26.6613C51.3173 24.8462 53.3867 22.6436 53.3867 20.0533C53.3867 17.4631 51.3173 15.2587 47.1787 13.44C43.0418 11.6267 37.9991 10.72 32.0507 10.72C26.1022 10.72 21.0515 11.6267 16.8987 13.44C12.744 15.2569 10.6667 17.4613 10.6667 20.0533C10.6667 22.6453 12.744 24.848 16.8987 26.6613C21.0515 28.4764 26.1022 29.384 32.0507 29.384M32 33.488C34.1635 33.488 36.3644 33.3156 38.6027 32.9707C40.8409 32.6276 42.944 32.1191 44.912 31.4453C46.8818 30.7716 48.6151 29.936 50.112 28.9387C51.6107 27.9431 52.7013 26.7929 53.384 25.488V33.384C52.7013 34.6907 51.6107 35.8418 50.112 36.8373C48.6151 37.8347 46.8818 38.6702 44.912 39.344C42.944 40.0178 40.8409 40.5262 38.6027 40.8693C36.3644 41.2124 34.1635 41.384 32 41.384C29.8364 41.384 27.6355 41.2124 25.3973 40.8693C23.1591 40.5262 21.064 40.0178 19.112 39.344C17.16 38.6702 15.4355 37.8347 13.9387 36.8373C12.4418 35.8418 11.3511 34.6907 10.6667 33.384V25.488C11.3511 26.7929 12.4418 27.944 13.9387 28.9413C15.4355 29.9369 17.16 30.7724 19.112 31.448C21.064 32.12 23.1591 32.6276 25.3973 32.9707C27.6355 33.3156 29.8364 33.488 32 33.488ZM32 45.488C34.1635 45.488 36.3644 45.3156 38.6027 44.9707C40.8409 44.6276 42.944 44.1191 44.912 43.4453C46.8818 42.7716 48.6151 41.936 50.112 40.9387C51.6107 39.9431 52.7013 38.7929 53.384 37.488V45.3333C52.7013 46.64 51.6107 47.7911 50.112 48.7867C48.6151 49.7822 46.8818 50.6178 44.912 51.2933C42.944 51.9653 40.8409 52.4738 38.6027 52.8187C36.3644 53.1618 34.1635 53.3333 32 53.3333C29.8364 53.3333 27.6355 53.1618 25.3973 52.8187C23.1591 52.4738 21.064 51.9653 19.112 51.2933C17.16 50.6178 15.4355 49.7822 13.9387 48.7867C12.4418 47.7911 11.3511 46.64 10.6667 45.3333V37.488C11.3511 38.7929 12.4418 39.944 13.9387 40.9413C15.4355 41.9369 17.16 42.7724 19.112 43.448C21.064 44.12 23.1591 44.6276 25.3973 44.9707C27.6355 45.3156 29.8364 45.488 32 45.488Z" fill="#4151E4"/>
</svg>
