<svg width="256" height="256" viewBox="0 0 128 128" fill="none" xmlns="http://www.w3.org/2000/svg">
<path d="M79.68 104L64 94.7733L48.32 104L52.48 86.1866L38.6666 74.24L56.8533 72.6933L64 56L71.1466 72.6933L89.3333 74.24L75.52 86.1866M106.667 10.6666H21.3333V21.3333L47.2533 40.7466C38.2102 44.6057 30.7774 51.4697 26.2119 60.1776C21.6465 68.8856 20.2286 78.903 22.1981 88.5359C24.1675 98.1688 29.4035 106.826 37.0204 113.043C44.6374 119.26 54.1678 122.656 64 122.656C73.8321 122.656 83.3626 119.26 90.9795 113.043C98.5965 106.826 103.832 98.1688 105.802 88.5359C107.771 78.903 106.354 68.8856 101.788 60.1776C97.2226 51.4697 89.7898 44.6057 80.7466 40.7466L106.667 21.3333M96 80C96.0028 86.0601 94.2848 91.9965 91.0458 97.1184C87.8068 102.24 83.1799 106.337 77.7036 108.932C72.2272 111.528 66.1266 112.514 60.1113 111.778C54.0961 111.041 48.4137 108.612 43.7251 104.772C39.0366 100.933 35.5347 95.8407 33.627 90.0887C31.7192 84.3367 31.484 78.1612 32.9487 72.2807C34.4134 66.4003 37.5178 61.0566 41.9007 56.8715C46.2837 52.6863 51.7649 49.8318 57.7066 48.64C61.8588 47.7864 66.1412 47.7864 70.2933 48.64C77.5409 50.0937 84.0617 54.0118 88.7479 59.7285C93.434 65.4452 95.9965 72.608 96 80ZM67.36 37.3333H60.64L39.3066 21.3333H89.12L67.36 37.3333Z" fill="#4151E4"/>
</svg>
