<svg width="64" height="64" viewBox="0 0 64 64" fill="none" xmlns="http://www.w3.org/2000/svg">
<path d="M45.3333 5.33334V10.6667H53.352C54.8133 10.6667 56 11.8533 56 13.3147V56.0187C55.9993 56.7208 55.7201 57.3939 55.2236 57.8903C54.7272 58.3868 54.0541 58.666 53.352 58.6667H10.648C9.94571 58.6667 9.27218 58.3877 8.77558 57.8911C8.27899 57.3945 8 56.721 8 56.0187V13.3147C8 11.8533 9.18667 10.6667 10.648 10.6667H18.6667V5.33334H45.3333ZM18.6667 16H13.3333V53.3333H50.6667V16H45.3333V21.3333H18.6667V16ZM24 42.6667V48H18.6667V42.6667H24ZM24 34.6667V40H18.6667V34.6667H24ZM24 26.6667V32H18.6667V26.6667H24ZM40 10.6667H24V16H40V10.6667Z" fill="#4151E4"/>
</svg>
