<svg width="64" height="64" viewBox="0 0 64 64" fill="none" xmlns="http://www.w3.org/2000/svg">
<path d="M53.3333 21.3333L37.3333 5.33334H16C14.5855 5.33334 13.2289 5.89525 12.2288 6.89544C11.2286 7.89563 10.6667 9.25219 10.6667 10.6667V53.3333C10.6667 54.7478 11.2286 56.1044 12.2288 57.1046C13.2289 58.1048 14.5855 58.6667 16 58.6667H48C49.4145 58.6667 50.771 58.1048 51.7712 57.1046C52.7714 56.1044 53.3333 54.7478 53.3333 53.3333V21.3333ZM24 50.6667H18.6667V26.6667H24V50.6667ZM34.6667 50.6667H29.3333V34.6667H34.6667V50.6667ZM45.3333 50.6667H40V42.6667H45.3333V50.6667ZM37.3333 24H34.6667V10.6667L48 24H37.3333Z" fill="#4151E4"/>
</svg>
